<svg width="25" height="24" viewBox="0 0 25 24" fill="none" xmlns="http://www.w3.org/2000/svg">
<g clip-path="url(#clip0)">
<path d="M10.8638 10.5429C11.0895 10.3795 11.1985 10.1096 11.1985 9.73853C11.2063 9.56208 11.17 9.38823 11.0921 9.22994C11.0221 9.10279 10.9183 8.9964 10.7911 8.92115C10.6593 8.8412 10.5129 8.78828 10.3604 8.76546C10.1943 8.73432 10.0257 8.71875 9.85958 8.72134H8.03539V10.7895H10.0101C10.35 10.792 10.638 10.709 10.8638 10.5429ZM11.17 12.4112C10.9157 12.2166 10.5758 12.1206 10.1528 12.1206H8.0302V14.5598H10.1113C10.3059 14.5598 10.4849 14.5416 10.6588 14.5053C10.8233 14.4731 10.9801 14.4097 11.1207 14.3185C11.253 14.2328 11.3594 14.1161 11.4399 13.9656C11.5177 13.8151 11.5566 13.623 11.5566 13.3921C11.5566 12.9328 11.4269 12.6085 11.17 12.4112ZM13.2433 0C6.82359 0 1.61829 5.2053 1.61829 11.625C1.61829 18.0447 6.82359 23.25 13.2433 23.25C19.663 23.25 24.8683 18.0447 24.8683 11.625C24.8683 5.2053 19.663 0 13.2433 0ZM15.4878 7.44467H19.0791V8.31914H15.4878V7.44467ZM13.2433 14.6558C13.0753 14.9747 12.8354 15.2501 12.5427 15.4602C12.2365 15.673 11.8966 15.8287 11.5359 15.9195C11.1585 16.0206 10.7692 16.0704 10.3786 16.0674H6.08146V7.21632H10.2592C10.6822 7.21632 11.0662 7.25525 11.4165 7.3279C11.7642 7.40056 12.06 7.52511 12.3091 7.69378C12.5556 7.86244 12.7503 8.0882 12.8878 8.36844C13.0227 8.64609 13.0928 8.99381 13.0928 9.40639C13.0928 9.85271 12.9916 10.2212 12.7892 10.5196C12.5842 10.818 12.2884 11.0593 11.8862 11.2487C12.4337 11.4044 12.8359 11.6821 13.1006 12.0713C13.3704 12.4657 13.5028 12.938 13.5028 13.4933C13.5028 13.9448 13.4171 14.3314 13.2433 14.6558ZM20.4778 13.2857H15.8485C15.8485 13.7891 16.0224 14.2718 16.2845 14.5312C16.5491 14.7881 16.928 14.9179 17.4236 14.9179C17.7817 14.9179 18.0853 14.8271 18.3448 14.648C18.6017 14.469 18.7574 14.2795 18.8145 14.0823H20.3662C20.1171 14.853 19.7382 15.4031 19.2245 15.7353C18.7159 16.0674 18.0931 16.2335 17.3691 16.2335C16.8631 16.2335 16.409 16.1504 16.0016 15.9922C15.6098 15.8391 15.2569 15.6055 14.9663 15.3045C14.6797 14.9954 14.4582 14.6318 14.315 14.2354C14.1567 13.7969 14.0788 13.335 14.084 12.8705C14.084 12.3905 14.1645 11.9442 14.3202 11.529C14.6186 10.722 15.2387 10.0759 16.0302 9.74113C16.4531 9.56468 16.9072 9.47645 17.3665 9.48164C17.9115 9.48164 18.3837 9.58543 18.7937 9.79821C19.1884 10.0014 19.5311 10.2926 19.7953 10.6493C20.0574 11.0048 20.2416 11.4096 20.3584 11.8663C20.47 12.3152 20.5089 12.7875 20.4778 13.2857ZM17.312 10.805C17.0318 10.805 16.7957 10.8543 16.614 10.9503C16.4324 11.0463 16.2819 11.1657 16.1677 11.3032C16.059 11.436 15.9786 11.5897 15.9316 11.7547C15.89 11.8923 15.8615 12.0324 15.8511 12.1751H18.7185C18.6769 11.7262 18.5212 11.3941 18.3137 11.1605C18.0957 10.9296 17.7454 10.805 17.312 10.805Z" fill="#141414"/>
</g>
<defs>
<clipPath id="clip0">
<rect width="24" height="24" fill="white" transform="translate(0.868286)"/>
</clipPath>
</defs>
</svg>
