<svg width="25" height="24" viewBox="0 0 25 24" fill="none" xmlns="http://www.w3.org/2000/svg">
<g clip-path="url(#clip0)">
<path d="M17.4754 6.85823C16.707 6.1746 15.7844 5.68741 14.7866 5.4384C13.7887 5.18939 12.7454 5.18598 11.7459 5.42846C11.9224 5.66459 13.0823 7.24227 14.128 9.16507C16.3985 8.31395 17.3586 7.02171 17.4754 6.85823ZM14.333 12.6837C10.7339 13.937 9.43909 16.4359 9.32492 16.6694C10.407 17.5128 11.7667 18.0162 13.2432 18.0162C14.128 18.0162 14.9713 17.8371 15.7368 17.5102C15.6408 16.9497 15.2723 14.9983 14.3745 12.6681L14.333 12.6837ZM15.5708 12.3749C16.4063 14.6688 16.7462 16.5371 16.8111 16.9263C18.2435 15.9584 19.2633 14.4249 19.5461 12.6474C19.3281 12.5799 17.5714 12.0557 15.5708 12.3749ZM13.2432 0C6.82347 0 1.61816 5.2053 1.61816 11.625C1.61816 18.0447 6.82347 23.25 13.2432 23.25C19.6629 23.25 24.8682 18.0447 24.8682 11.625C24.8682 5.2053 19.6629 0 13.2432 0ZM13.2432 19.0982C9.12252 19.0982 5.76995 15.7456 5.76995 11.625C5.76995 7.50435 9.12252 4.15179 13.2432 4.15179C17.3638 4.15179 20.7164 7.50435 20.7164 11.625C20.7164 15.7456 17.3638 19.0982 13.2432 19.0982ZM14.621 10.1148C14.7689 10.4184 14.9117 10.7272 15.044 11.0386C15.0907 11.1475 15.1374 11.2565 15.1815 11.3681C17.3041 11.1008 19.4163 11.529 19.6265 11.5731C19.6136 10.0655 19.0738 8.68242 18.1864 7.59517C18.0489 7.77941 16.9798 9.15209 14.621 10.1148ZM12.8955 9.54911C11.8367 7.66783 10.6976 6.08756 10.5289 5.85661C8.74367 6.69994 7.40731 8.34509 6.99473 10.325C7.28016 10.3302 9.91136 10.3431 12.8955 9.54911ZM13.6895 11.6899C13.7725 11.6639 13.8556 11.638 13.9412 11.6146C13.7803 11.2513 13.6064 10.8881 13.4248 10.5326C10.2383 11.4875 7.14263 11.446 6.86498 11.4408C6.86239 11.5056 6.86239 11.5705 6.86239 11.6354C6.86239 13.2753 7.48256 14.7726 8.50234 15.9039C8.64506 15.6548 10.3966 12.7538 13.6895 11.6899Z" fill="#141414"/>
</g>
<defs>
<clipPath id="clip0">
<rect width="24" height="24" fill="white" transform="translate(0.868164)"/>
</clipPath>
</defs>
</svg>
