<svg width="26" height="24" viewBox="0 0 26 24" fill="none" xmlns="http://www.w3.org/2000/svg">
<path fill-rule="evenodd" clip-rule="evenodd" d="M12.9341 0C5.78803 0 0 5.50583 0 12.3035C0 17.7478 3.7024 22.3463 8.84372 23.9765C9.49043 24.0842 9.73294 23.715 9.73294 23.3921C9.73294 23.0999 9.71677 22.131 9.71677 21.1005C6.46707 21.6696 5.62635 20.347 5.36767 19.6549C5.22216 19.3012 4.59162 18.2092 4.04192 17.917C3.58922 17.6863 2.94252 17.1173 4.02575 17.1019C5.04432 17.0865 5.77186 17.9939 6.01438 18.363C7.17845 20.2239 9.03773 19.701 9.78145 19.3781C9.89462 18.5783 10.2341 18.04 10.606 17.7325C7.72815 17.4249 4.72096 16.3637 4.72096 11.6576C4.72096 10.3196 5.22216 9.21227 6.04671 8.35102C5.91737 8.04343 5.46468 6.78232 6.17605 5.09058C6.17605 5.09058 7.25929 4.76762 9.73294 6.3517C10.7677 6.07487 11.8671 5.93645 12.9665 5.93645C14.0659 5.93645 15.1653 6.07487 16.2 6.3517C18.6737 4.75224 19.7569 5.09058 19.7569 5.09058C20.4683 6.78232 20.0156 8.04343 19.8862 8.35102C20.7108 9.21227 21.212 10.3042 21.212 11.6576C21.212 16.3791 18.1886 17.4249 15.3108 17.7325C15.7797 18.1169 16.1838 18.8552 16.1838 20.0086C16.1838 21.6542 16.1677 22.9768 16.1677 23.3921C16.1677 23.715 16.4102 24.0995 17.0569 23.9765C19.6245 23.1519 21.8557 21.5821 23.4363 19.4881C25.0169 17.3942 25.8675 14.8814 25.8683 12.3035C25.8683 5.50583 20.0803 0 12.9341 0Z" fill="#141414"/>
</svg>
