<svg width="24" height="24" viewBox="0 0 24 24" fill="none" xmlns="http://www.w3.org/2000/svg">
<path fill-rule="evenodd" clip-rule="evenodd" d="M0.999756 2.83812C0.999756 2.35066 1.1934 1.88315 1.53809 1.53846C1.88279 1.19377 2.35029 1.00012 2.83776 1.00012H21.1598C21.4013 0.99973 21.6406 1.04699 21.8639 1.13919C22.0872 1.23139 22.2901 1.36673 22.461 1.53746C22.6319 1.70819 22.7675 1.91095 22.8599 2.13413C22.9524 2.35732 22.9999 2.59655 22.9998 2.83812V21.1601C23 21.4017 22.9526 21.641 22.8603 21.8643C22.768 22.0876 22.6326 22.2905 22.4618 22.4614C22.291 22.6323 22.0881 22.7679 21.8649 22.8603C21.6417 22.9527 21.4024 23.0003 21.1608 23.0001H2.83776C2.5963 23.0001 2.35721 22.9525 2.13415 22.8601C1.91109 22.7677 1.70843 22.6322 1.53774 22.4614C1.36705 22.2907 1.23169 22.0879 1.13938 21.8648C1.04707 21.6417 0.999625 21.4026 0.999756 21.1611V2.83812ZM9.70776 9.38812H12.6868V10.8841C13.1168 10.0241 14.2168 9.25012 15.8698 9.25012C19.0388 9.25012 19.7898 10.9631 19.7898 14.1061V19.9281H16.5828V14.8221C16.5828 13.0321 16.1528 12.0221 15.0608 12.0221C13.5458 12.0221 12.9158 13.1111 12.9158 14.8221V19.9281H9.70776V9.38812ZM4.20776 19.7911H7.41576V9.25012H4.20776V19.7901V19.7911ZM7.87476 5.81212C7.88081 6.0868 7.83193 6.35991 7.731 6.61544C7.63006 6.87097 7.47911 7.10376 7.28699 7.30016C7.09487 7.49655 6.86545 7.6526 6.61221 7.75913C6.35897 7.86566 6.087 7.92054 5.81226 7.92054C5.53752 7.92054 5.26554 7.86566 5.0123 7.75913C4.75906 7.6526 4.52964 7.49655 4.33752 7.30016C4.14541 7.10376 3.99445 6.87097 3.89352 6.61544C3.79258 6.35991 3.74371 6.0868 3.74976 5.81212C3.76163 5.27298 3.98414 4.75992 4.36964 4.38281C4.75514 4.00571 5.27298 3.79454 5.81226 3.79454C6.35153 3.79454 6.86937 4.00571 7.25487 4.38281C7.64037 4.75992 7.86288 5.27298 7.87476 5.81212Z" fill="#141414"/>
</svg>
