<svg width="49" height="75" viewBox="0 0 49 75" fill="none" xmlns="http://www.w3.org/2000/svg">
<path fill-rule="evenodd" clip-rule="evenodd" d="M48.6455 24.3228C48.6455 37.7558 37.7558 48.6455 24.3228 48.6455C10.8897 48.6455 0 37.7558 0 24.3228C0 10.8897 10.8897 0 24.3228 0C37.7558 0 48.6455 10.8897 48.6455 24.3228ZM13.4713 5.47181C9.33508 7.85989 6.09497 11.5372 4.24665 15.9412C2.39833 20.3452 2.04356 25.2334 3.23662 29.8582C4.42967 34.4829 7.10486 38.5895 10.853 41.5498C14.6011 44.5101 19.2157 46.161 23.991 46.2502C28.7663 46.3393 33.4394 44.8617 37.2954 42.0433C41.1513 39.225 43.9779 35.2211 45.3427 30.6441C46.7075 26.0671 46.5354 21.169 44.8527 16.6991C43.17 12.2292 40.0694 8.43355 36.0251 5.89279L32.945 10.7956C35.9178 12.6633 38.197 15.4533 39.4339 18.739C40.6708 22.0247 40.7973 25.6251 39.794 28.9895C38.7908 32.354 36.7131 35.2971 33.8787 37.3688C31.0443 39.4405 27.6093 40.5266 24.0991 40.4611C20.5889 40.3956 17.1968 39.182 14.4417 37.006C11.6866 34.83 9.72013 31.8113 8.84315 28.4118C7.96617 25.0123 8.22695 21.4191 9.58559 18.1819C10.9442 14.9446 13.3259 12.2416 16.3664 10.4862L13.4713 5.47181ZM24.4084 31.1742C28.2397 31.1742 31.3455 28.0683 31.3455 24.2371C31.3455 20.4058 28.2397 17.3 24.4084 17.3C20.5771 17.3 17.4713 20.4058 17.4713 24.2371C17.4713 28.0683 20.5771 31.1742 24.4084 31.1742Z" fill="black"/>
<path d="M1.19904 38.0257C1.19904 38.0257 5.05299 46.0762 13.703 49.1594V74.8524H1.19904V38.0257Z" fill="black"/>
</svg>
